# xmcd CD database file
#
# Track frame offsets:
#	150
#	26420
#	45750
#	74522
#
# Disc length: 1345 seconds
#
# Revision: 5
# Processed by: cddbd v1.5PL3 Copyright (c) Steve Scherf et al.
# Submitted via: CDex 1.50Beta5
#
DISCID=28053f04
DTITLE=中島みゆき - 瞬きもせず
DYEAR=1900
DGENRE=J-pop
TTITLE0=瞬きもせず
TTITLE1=私たちは春の中で
TTITLE2=瞬きもせず<MOVIE THEME VERSION>
TTITLE3=瞬きもせず<TV MIX>
EXTD=
EXTT0=
EXTT1=
EXTT2=
EXTT3=
PLAYORDER=
